<svg width="10" height="15" viewBox="0 0 10 15" fill="none" xmlns="http://www.w3.org/2000/svg">
<path d="M1.75708 14.4602C1.60632 14.4602 1.43967 14.4387 1.29321 14.3801L1.18677 14.3303C1.11779 14.2936 1.05259 14.2503 0.991455 14.2034L0.903564 14.1311L0.899658 14.1272L0.821533 14.0422C0.749957 13.9537 0.692969 13.8528 0.649658 13.7542L0.602783 13.6438C0.564268 13.5317 0.551025 13.4151 0.551025 13.2971C0.551063 13.1826 0.571353 13.0693 0.606689 12.9622L0.646728 12.8577C0.692729 12.7516 0.758942 12.6541 0.838135 12.5647L0.921142 12.4778L6.26782 7.34009L5.31372 6.43286L5.31274 6.43286L0.921142 2.20142L0.919188 2.19946L0.843017 2.1145C0.676655 1.90982 0.585324 1.6562 0.59497 1.39185L0.600829 1.28052C0.623371 1.05848 0.713074 0.852529 0.863524 0.677979L0.943602 0.593995C1.15872 0.387298 1.45662 0.261064 1.76782 0.260987C2.07441 0.260987 2.37328 0.362618 2.60181 0.570557L2.60376 0.57251L8.80298 6.53052C8.88487 6.60925 8.95237 6.70061 9.0061 6.79907L9.05493 6.89966C9.11416 7.03629 9.15057 7.18661 9.15063 7.33911C9.15063 7.49201 9.11398 7.64224 9.05591 7.78735L9.05493 7.79028L9.0061 7.89087C8.95237 7.98927 8.88484 8.08074 8.80298 8.15942L2.60376 14.1165L2.51978 14.1907C2.43142 14.2623 2.33093 14.3257 2.22192 14.3694L2.21899 14.3704L2.10571 14.4075C1.99145 14.4408 1.87506 14.4602 1.75708 14.4602Z" fill="#181725" stroke="#181725" stroke-width="0.2"/>
</svg>
