<svg width="25" height="25" viewBox="0 0 25 25" fill="none" xmlns="http://www.w3.org/2000/svg">
<path d="M8.58609 12.4218C8.72692 12.3693 8.87836 12.3421 9.03147 12.3416C9.18458 12.3411 9.33625 12.3674 9.47751 12.419C9.61877 12.4706 9.74675 12.5463 9.85389 12.6418C9.96103 12.7373 10.0452 12.8506 10.1013 12.9749C10.1574 13.0993 10.1844 13.2322 10.1807 13.3659C10.177 13.4995 10.1426 13.6311 10.0797 13.7529C10.0167 13.8748 9.92635 13.9844 9.81403 14.0752C9.7017 14.166 9.56966 14.2363 9.4257 14.2818C8.66002 14.5452 8.00286 15.0037 7.53973 15.5976C7.0766 16.1915 6.82894 16.8933 6.82898 17.6118V19.3518C6.82898 19.617 6.94966 19.8714 7.16447 20.0589C7.37928 20.2465 7.67063 20.3518 7.97442 20.3518H17.138C17.4418 20.3518 17.7331 20.2465 17.9479 20.0589C18.1628 19.8714 18.2834 19.617 18.2834 19.3518V17.7048C18.2836 16.9633 18.0255 16.2392 17.5436 15.6286C17.0616 15.018 16.3785 14.5497 15.5848 14.2858C15.4399 14.2419 15.3066 14.1731 15.1928 14.0834C15.079 13.9937 14.9869 13.885 14.9222 13.7637C14.8574 13.6424 14.8211 13.5109 14.8156 13.3771C14.8101 13.2434 14.8353 13.11 14.89 12.9849C14.9446 12.8598 15.0274 12.7456 15.1335 12.649C15.2396 12.5524 15.3669 12.4753 15.5077 12.4224C15.6486 12.3695 15.8002 12.3419 15.9535 12.3411C16.1068 12.3403 16.2588 12.3664 16.4003 12.4178C17.6278 12.826 18.6842 13.5501 19.4296 14.4943C20.175 15.4385 20.5742 16.5581 20.5743 17.7048V19.3518C20.5743 20.1475 20.2123 20.9105 19.5678 21.4731C18.9234 22.0357 18.0494 22.3518 17.138 22.3518H7.97442C7.06305 22.3518 6.189 22.0357 5.54457 21.4731C4.90013 20.9105 4.53809 20.1475 4.53809 19.3518V17.6118C4.53824 16.492 4.92442 15.3981 5.64637 14.4724C6.36833 13.5468 7.39265 12.8323 8.58609 12.4218ZM12.5562 2.35181C13.7714 2.35181 14.9368 2.77323 15.796 3.52338C16.6553 4.27352 17.138 5.29094 17.138 6.35181V8.35181C17.138 9.41267 16.6553 10.4301 15.796 11.1802C14.9368 11.9304 13.7714 12.3518 12.5562 12.3518C11.341 12.3518 10.1756 11.9304 9.3164 11.1802C8.45714 10.4301 7.97442 9.41267 7.97442 8.35181V6.35181C7.97442 5.29094 8.45714 4.27352 9.3164 3.52338C10.1756 2.77323 11.341 2.35181 12.5562 2.35181ZM12.5562 4.35181C11.9486 4.35181 11.3659 4.56252 10.9363 4.93759C10.5067 5.31267 10.2653 5.82137 10.2653 6.35181V8.35181C10.2653 8.88224 10.5067 9.39095 10.9363 9.76602C11.3659 10.1411 11.9486 10.3518 12.5562 10.3518C13.1638 10.3518 13.7465 10.1411 14.1761 9.76602C14.6057 9.39095 14.8471 8.88224 14.8471 8.35181V6.35181C14.8471 5.82137 14.6057 5.31267 14.1761 4.93759C13.7465 4.56252 13.1638 4.35181 12.5562 4.35181Z" fill="#181725"/>
</svg>
