<svg width="15" height="16" viewBox="0 0 15 16" fill="none" xmlns="http://www.w3.org/2000/svg">
<path d="M13.7421 0.94519C13.8887 0.94519 14.0493 0.966668 14.1884 1.02234L14.2889 1.06921C14.322 1.08682 14.3542 1.10625 14.3856 1.12683L14.5634 1.26257L14.5653 1.26453L14.6395 1.34558C14.7081 1.43058 14.7634 1.52825 14.8055 1.62488L14.8495 1.72839C14.8856 1.83372 14.8983 1.94434 14.8983 2.05847C14.8983 2.20313 14.8635 2.34693 14.8065 2.47839C14.763 2.57871 14.7001 2.67163 14.6239 2.75769L14.5438 2.84167L9.15906 8.0155L10.1512 8.95886H10.1522L14.5438 13.1913L14.5448 13.1923L14.6171 13.2733C14.7767 13.4697 14.8639 13.7118 14.8544 13.9637L14.8495 14.0712C14.8279 14.2824 14.7422 14.4786 14.5985 14.6454L14.5214 14.7264C14.3152 14.9245 14.0293 15.0458 13.7313 15.0458C13.4356 15.0458 13.1489 14.9467 12.9305 14.7479L12.9296 14.7469L6.73132 8.78894C6.65345 8.71408 6.58849 8.62741 6.53699 8.53308L6.49011 8.4364C6.43311 8.3049 6.39834 8.16118 6.39832 8.01648C6.39832 7.8716 6.43272 7.72778 6.48914 7.58679L6.49011 7.58582L6.53699 7.48914C6.58848 7.3948 6.65345 7.30814 6.73132 7.23328L12.9296 1.27429L13.0106 1.203C13.0957 1.13408 13.1929 1.07468 13.2968 1.03308L13.2977 1.0321L13.4081 0.995972C13.5185 0.963847 13.6298 0.945214 13.7421 0.94519Z" fill="#B3B3B3" stroke="#B3B3B3" stroke-width="0.1"/>
<path d="M1.79285 15.0454C1.64619 15.0454 1.48557 15.0239 1.34656 14.9683L1.24597 14.9214C1.21288 14.9038 1.18071 14.8844 1.14929 14.8638L0.971558 14.728L0.969605 14.7261L0.895386 14.645C0.826802 14.56 0.771503 14.4623 0.72937 14.3657L0.685425 14.2622C0.649297 14.1569 0.636597 14.0463 0.636597 13.9321C0.636641 13.7875 0.671404 13.6437 0.728394 13.5122C0.771926 13.4119 0.834782 13.319 0.911011 13.2329L0.991089 13.1489L6.37586 7.9751L5.38367 7.03174L5.38269 7.03174L0.99109 2.79932L0.990113 2.79834L0.917848 2.71728C0.758193 2.52094 0.671015 2.27875 0.680543 2.02685L0.685426 1.91943C0.706987 1.70825 0.792694 1.51204 0.936403 1.34521L1.01355 1.26416C1.2197 1.06613 1.50563 0.944824 1.80359 0.944824C2.09933 0.944824 2.38604 1.04387 2.60437 1.24268L2.60535 1.24365L8.80359 7.20166C8.88146 7.27652 8.94643 7.36319 8.99793 7.45752L9.0448 7.5542C9.10181 7.6857 9.13657 7.82942 9.1366 7.97412C9.1366 8.119 9.10219 8.26282 9.04578 8.40381L9.0448 8.40479L8.99793 8.50146C8.94643 8.5958 8.88146 8.68246 8.80359 8.75732L2.60535 14.7163L2.52429 14.7876C2.43924 14.8565 2.34204 14.9159 2.23816 14.9575L2.23718 14.9585L2.12683 14.9946C2.01646 15.0268 1.90508 15.0454 1.79285 15.0454Z" fill="#B3B3B3" stroke="#B3B3B3" stroke-width="0.1"/>
</svg>
